<!DOCTYPE html>
<html><title>ffmpeg convert a video using a specific audio and subtitle track</title>


<meta charset="utf-8">
<meta http-equiv="X-UA-Compatible" content="IE=edge">
<meta name="google-site-verification" content="bLmaFyyXugiCqSup-eIIIx0B4CngtdF_svyMMKQbS5E" />
<meta name="viewport" content="width=device-width, initial-scale=1, maximum-scale=10, minimum-scale=0.5, user-scalable=yes">
<meta name="apple-mobile-web-app-capable" content="yes" />
<script src="https://hypothes.is/embed.js" async></script>


<link rel="stylesheet" href="/braindump/css/main.min.56b43bcbc759a196f9dd525bee62bdec45a29ba95902bbab74a4f7ad2ea3e8cb.css"/>

<link rel="stylesheet" href="/braindump/css/links.min.4bf1990b213fb76d2a66153dc6ef9a57d49f536c6baf6e7f19a7948470a38141.css"/>

<link rel="stylesheet" href="/braindump/css/konubinix.min.cf2d0f36945178c647979ee68f1830892e06aa3d481d8913728b5c7462b97f6e.css"/>

<link rel="stylesheet" href="/ipfs/QmQFVQS89fv1XUNFcjwCKDePzckuT9kpuAVNYUwNdEfYcv/css/all.css"/>
<link rel="shortcut icon" href="/ipfs/QmVFwYV7YRZLKU3ybN1hW4jqfyZGPLKJwd8toN2wHz5UAD?a.png" type="image/x-icon" />

<body><header>
  <div>
	<a href="/braindump//"><h5 class="site-title">Konubinix&#39; opinionated web of thoughts</h5></a>
  </div>
  <span>
	<a href="/blog/"><i class="icon fas fa-blog"></i></a>
	<a href="/braindump/posts/"><i class="icon fas fa-brain"></i></a>
    <a href="mailto:konubinixweb@gmail.com"><i class="icon fas fa-envelope-square"></i></a>
    <a href="https://github.com/konubinix"><i class="icon fab fa-github-square"></i></a>
    <a href="https://linkedin.com/in/samuel-loury-61259040"><i class="icon fab fa-linkedin"></i></a>
	<a href="/braindump/graph.html"><i class="icon fas fa-project-diagram"></i></a>
	<a href="/braindump/index.xml"><i class="icon fas fa-rss-square"></i></a>
	<a href="/braindump/tags/"><i class="icon fa fa-tag"></i></a>
	<a href="/braindump/braindump_search"><i class="icon fa fa-search"></i></a>
  </span>
</header>

<div class="grid-container">
  <div class="grid">
    <div class="page" data-level="1">
      <div class="content">
		<p class="lead">
        <h1>Ffmpeg Convert a Video Using a Specific Audio and Subtitle Track</h1>
		<span class="badge badge-pill badge-warning"><a href="/braindump/tags/fleeting/">Fleeting</a></span></p>
        <p><a href="/braindump/posts/ffmpeg/">ffmpeg</a>, <a href="/braindump/posts/ffmpeg_map_option/">ffmpeg -map option</a></p>
<div class="highlight"><pre tabindex="0" style="background-color:#fff;-moz-tab-size:4;-o-tab-size:4;tab-size:4;"><code class="language-bash" data-lang="bash"><span style="display:flex;"><span>ffmpgeg -i thefile
</span></span></code></pre></div><p>#+RESULT</p>
<div class="highlight"><pre tabindex="0" style="background-color:#fff;-moz-tab-size:4;-o-tab-size:4;tab-size:4;"><code class="language-text" data-lang="text"><span style="display:flex;"><span>Stream #0:0: Video: h264 (High), yuv420p(tv, smpte170m/smpte170m/bt709, progressive), 640x480 [SAR 1:1 DAR 4:3], 29.97 fps, 29.97 tbr, 1k tbn (default)
</span></span><span style="display:flex;"><span>Stream #0:1(eng): Audio: aac (LC), 48000 Hz, stereo, fltp (default)
</span></span><span style="display:flex;"><span>  Metadata:
</span></span><span style="display:flex;"><span>    title           : Stereo
</span></span><span style="display:flex;"><span>Stream #0:2(fra): Audio: aac (LC), 48000 Hz, stereo, fltp
</span></span><span style="display:flex;"><span>  Metadata:
</span></span><span style="display:flex;"><span>    title           : Stereo
</span></span><span style="display:flex;"><span>Stream #0:3(eng): Subtitle: dvd_subtitle, 720x480
</span></span></code></pre></div><p>Say I want to use the second audio track and the first subtitle track</p>
<div class="highlight"><pre tabindex="0" style="background-color:#fff;-moz-tab-size:4;-o-tab-size:4;tab-size:4;"><code class="language-bash" data-lang="bash"><span style="display:flex;"><span>ffmpeg -i thefile -map 0:a:1 -map 0:s:0 -map 0:v:0 outfile
</span></span></code></pre></div><p>I need to specify the map for the video also, or it will be dropped by the command</p>
<p>The first number is the input file index, in this case all tracks come from a
single file, hence the value 0 everywhere.</p>
<p>The command should be understood as</p>
<dl>
<dt>-map 0:a:1</dt>
<dd>take the second track of the first file (the first is 0, the second is 1),</dd>
<dt>-map 0:s:0</dt>
<dd>take the first subtitle track of the first file</dd>
<dt>-map 0:v:0</dt>
<dd>take the first video track of the first file</dd>
</dl>
<h2 id="notes-linking-here">Notes linking here</h2>
<ul>
<li><a href="/braindump/posts/ffmpeg/#b8b94140-0189-4982-b7c6-769753deb83e">add a bunch of subtitles in a file stored in ipfs</a></li>
<li><a href="/braindump/posts/ffmpeg/#db950a66-cd39-4f2c-bd72-627b78886841">set subtitles track as default</a></li>
</ul>
<h2 id="permalink"><a href="https://konubinix.eu/braindump/ede88ec4-d129-4f43-b932-38887a67c128?title=ffmpeg_convert_a_video_using_a_specific_audio_and_subtitle_track">Permalink</a></h2>
      </div>
	  <aside class="date"><time>Last updated: 11 Apr 2023</time></aside>
	  <aside class="date"><time>Published&nbsp;&nbsp;&nbsp;: 09 Mar 2023</time></aside>
    </div>
  </div>
</div>

<script src="/braindump/js/URI.js" type="text/javascript"></script>

<script src="/braindump/js/page.js" type="text/javascript"></script>
<script id="MathJax-script" async src="https://cdn.jsdelivr.net/npm/mathjax@3/es5/tex-mml-chtml.js"></script>
</body>
</html>
